<svg xmlns="http://www.w3.org/2000/svg" height="800" width="1200" viewBox="-22.66725 -4.838875 196.4495 29.03325"><path fill="#b31b1b" d="M52.9724 0c-.0438 0-.1083.0191-.1895.0566-.0175.01-.0391.0167-.0566.0254-.5637.2625-1.5315.48-2.914.6563v.541c.7775 0 1.2136.0226 1.3086.0663.0688.025.1204.071.1504.1309.0463.09.0812.508.1074 1.2618a96.615 96.615 0 01.0548 3.244v3.9063c-.0325 1.7163-.051 2.6168-.0548 2.6993-.015.32-.055.5442-.125.668-.0775.1275-.2063.2108-.4863.2246l-.8985.01v.5429c1.6388-.0537 2.2963-.0586 2.4375-.0586 1.19.015 2.0173.0449 2.2598.0586v-.543c-.6588-.0112-1.011-.023-1.0547-.0292-.1012-.0238-.1766-.057-.2266-.0958-.1812-.1487-.2197-.3996-.2285-.8359-.005-.13-.0266-1.012-.0566-2.6446l.0215-6.3555s.0855-3.2636.0918-3.3711c0-.0488-.0125-.0872-.0372-.1172-.0237-.0287-.061-.041-.1035-.041zm5.709 0c-.1075.0187-.285.1026-.5137.1914-.5825.215-1.4615.3969-2.6465.5469v.541c.7775 0 1.2148.0226 1.3086.0664.07.025.1192.0709.1504.1308.045.09.0811.508.1074 1.2618a96.7256 96.7256 0 01.0566 3.2441v3.9063c-.0337 1.7162-.0516 2.6167-.0566 2.6992-.0138.32-.055.5442-.125.668-.0763.1275-.2083.2109-.4883.2246l-.8965.01v.543c1.5188-.0525 2.2038-.0586 2.4375-.0586 1.015.0113 1.8173.0386 2.2598.0586v-.543c-.6575-.0112-1.011-.023-1.0547-.0292-.1025-.0237-.1766-.057-.2266-.0957-.1825-.1488-.2185-.3997-.2285-.836-.0062-.13-.0241-1.012-.0566-2.6445l.0215-6.3555s.0842-3.2636.0917-3.3711c0-.0487-.0112-.0871-.037-.1171-.025-.0288-.0586-.041-.1036-.041zM7.58.375c-2.305.0438-4.1343.6943-5.4843 1.9667C.6995 3.6592 0 5.3157 0 7.3182c0 1.5813.4236 2.8935 1.2148 4.0235.7888 1.1275 2.0475 2.0907 3.7188 2.5782.835.245 1.7316.3672 2.7129.3672.8287 0 1.5943-.085 2.2968-.25.7038-.1675 1.4213-.4374 2.1563-.8086l.3672-.879-.1602-.1972c-.4962.3525-.9948.6123-1.4961.7773-.8025.265-1.6999.3766-2.6211.3516-1.7988-.045-3.2574-.6178-4.3712-1.7265-1.16-1.16-1.7402-2.6874-1.7402-4.5899.0062-1.085.1604-1.987.4629-2.707.3012-.7175.691-1.3105 1.166-1.7792.9225-.9088 2.0687-1.317 3.7812-1.3633a2.566 2.566 0 01.1387-.0037c2.3925 0 3.6225.5935 3.75 1.8222l.0075 1.1074h.5703c.0375-.7025.1064-1.321.205-1.8535.0676-.3325.1717-.6725.3067-1.0175-.1562-.0313-.5839-.1412-1.2851-.3262C10.4824.659 9.8874.5365 9.3999.469 8.8462.394 8.221.3677 7.5797.3752zm56.91.2773v.5997c.7263.01 1.1666.0459 1.3203.0996.1575.0513.2698.1347.3398.2422.0713.1087.1141.4636.1328 1.0586a52.7 52.7 0 01.0587 2.502v4.1563c0 1.2124.0873 2.0728.2636 2.5878.1375.39.3918.7683.7618 1.1446.7412.745 2.1942 1.2441 4.1367 1.2441 1.6575 0 3.0713-.4094 3.9375-1.1094.5788-.47.9752-1.0139 1.1914-1.6288.2163-.6138.3242-1.6954.3242-3.2442V5.1545c.02-1.655.0473-2.5444.086-2.672.0175-.4824.065-.7876.1387-.91.0625-.0976.1687-.1695.3262-.2208.1575-.0537.5981-.0896 1.3281-.0996V.6525C77.3622.7 76.4007.711 76.1407.707c-.4625-.006-1.0905-.0245-1.8868-.0545v.5996c.7225.01 1.1655.0459 1.3243.0997.16.0512.275.1321.3437.2421.07.1088.1125.4617.125 1.0567.0388.815.0586 1.6507.0586 2.502v2.8926c0 1.6438-.1133 2.6864-.3808 3.2989-.27.615-.7499 1.1197-1.84 1.461-.545.1725-1.1678.2597-1.869.2597-1.2088 0-2.222-.2788-2.8008-.705-.3762-.2813-.6485-.6384-.8222-1.0684-.1725-.43-.2598-1.3177-.2598-2.664V5.1528c.0287-1.6538.0479-2.5436.0566-2.6699.0188-.4812.0673-.7871.1484-.9121.0538-.095.1623-.1675.3223-.2188.16-.0537.6017-.0896 1.3243-.0996V.6528c-1.3788.045-2.8024.0585-3.1212.0546-.7425-.0037-1.5305-.0222-2.373-.0546zm67.1138.1133c-.2975 0-.543.1043-.748.3105-.2076.2063-.3106.4556-.3106.7481 0 .2875.103.534.3105.7402.41.41 1.0707.415 1.4844 0 .2075-.2062.3106-.4527.3106-.7402 0-.2925-.101-.5418-.3047-.748-.2025-.2063-.4497-.3106-.7422-.3106zm-39.23.0025c-.2925 0-.5406.1024-.748.3086-.2063.2062-.3087.4555-.3087.748 0 .2875.1024.534.3086.7403.2063.2062.4568.3105.748.3105.2876 0 .5334-.1042.7384-.3105.2062-.2063.3105-.4527.3105-.7402 0-.2926-.1009-.5419-.3047-.7481-.2012-.2063-.4504-.3086-.7441-.3086zm45.1675 1.252c-.4013.2575-.9253.499-1.5703.7266V5.608c-.3587.1763-.8443.3759-1.453.5997v.3944c.95-.0513 1.453-.0567 1.453-.0567s-.001 4.0637-.0137 4.2774c-.0225.5113-.0374.984-.0449 1.414.0325.4488.1063.7776.2188.9864.2262.4187.5599.6846.9511.8359.1975.075.4648.1152.791.1152.535 0 .8993-.043 1.373-.2168.2738-.2512.5591-.492.8516-.7246l-.1132-.3652c-.2013.0712-.3675.1151-.5137.1426-.03.0062-.0683.0182-.0958.0195-.1612.0237-.3701.0351-.6289.0351-.0387-.0037-.0712-.0126-.1073-.0176-.6-.0925-.7954-.2445-.963-.502-.0874-.1375-.1471-.2974-.1796-.4824-.0313-.185-.0363-.7498-.0177-1.6972l.0567-3.877c1.5562-.0088 2.0997-.0038 2.4785 0l.1972-.8223-.0663-.0586c-1.3238.0587-1.76.065-2.0625.0625a89.7962 89.7962 0 00-.547-.0075c.0826-1.7813.1586-2.9327.2286-3.4552l-.2226-.1875zM18.5139 4.8951c-1.3963 0-2.5399.4422-3.4336 1.336-.8913.8912-1.338 2.0405-1.338 3.4492 0 .7825.1442 1.5157.4317 2.2032.325.78.9307 1.572 1.9395 2.0645.505.2462 1.1182.3691 1.8458.3691.9312 0 1.7882-.2165 2.5645-.6465.7762-.4312 1.3752-1.0283 1.8027-1.787.425-.765.6387-1.606.6387-2.5236 0-1.3162-.414-2.3875-1.2402-3.2187-.8263-.8288-1.8973-1.2461-3.211-1.2461zm27.3575 0c-1.0225 0-1.8618.3234-2.748.9297-.3838.2625-.6652.4933-.8477.6933-.2512.2775-.475.7078-.6738 1.289-.1963.5825-.295 1.2353-.295 1.959 0 1.8513.7856 3.2827 2.123 3.9727.67.3462 1.4212.5214 2.2462.5214.84 0 1.6182-.2078 2.207-.4765.2-.0875.518-.2705.9492-.543l.3027-.6758-.1523-.162c-.5587.3474-1.0287.5723-1.4062.701-.945.3138-1.9005.2354-2.7793-.2108-1.0487-.5338-1.6722-1.631-1.6972-3.4434h3.0176c.6775 0 1.355-.0261 2.0312-.0761.3588-.0225.7617-.0818 1.213-.168.0374-.2513.0565-.4663.0565-.6426 0-1.3937-.505-2.545-1.6426-3.1875-.5662-.32-1.2018-.4805-1.9042-.4805zm63.395 0c-1.0175 0-1.8593.3234-2.748.9297-.3825.2625-.6664.4933-.8477.6933-.2512.2775-.4756.7078-.6718 1.289-.1988.5825-.297 1.2353-.297 1.959 0 1.8513.7856 3.2827 2.123 3.9727.6713.3462 1.415.5214 2.2462.5214.8387 0 1.6195-.2078 2.207-.4765.2-.0875.5167-.2705.9492-.543l.3028-.6758-.1524-.162c-.5612.3412-1.0287.5723-1.4062.701-.94.3113-1.8937.2379-2.7774-.2108-1.0475-.5338-1.6749-1.631-1.7011-3.4434h3.0195c.6762 0 1.355-.0261 2.0312-.0761.3575-.0225.7617-.0818 1.213-.168.0374-.2513.0565-.4663.0565-.6426 0-1.3937-.505-2.545-1.6426-3.1875-.5662-.32-1.2005-.4805-1.9042-.4805zm15.3575.0112c-.555.0325-1.076.1527-1.5548.379-1.115.52-1.6132 1.3907-1.6132 2.377 0 .6775.264 1.2786.6777 1.6523.2063.1888.4828.3493.834.4805.2325.0813.746.212 1.541.3945.7938.1813 1.3115.329 1.5528.4414.4837.225.746.6404.746 1.1641 0 .5888-.2064 1.0512-.6152 1.3886-.41.3388-.9335.5059-1.5722.5059-.2638-.0025-.5804-.0113-.8692-.0371-.3837-.05-.7624-.202-1.0761-.4844-.3138-.2838-.4441-.7183-.5079-1.1446-.0312-.2137-.0503-.5021-.0566-.8671h-.539c-.0113.8137-.0263 1.3498-.045 1.6073-.0537.5188-.1194.8485-.1269.9473 0 .0438.0142.0725.0392.0938.0375.0387.3004.1056.793.203.89.1688 1.606.252 2.1385.252 1.1663 0 2.096-.3139 2.791-.9414.695-.63 1.043-1.366 1.043-2.211 0-.8487-.397-1.4742-.9883-1.7617-.2962-.1413-.838-.3131-1.623-.5156l-1.5529-.3829c-.5862-.1762-.8797-.372-1.0722-.7246-.0963-.1737-.1446-.3826-.1446-.6289 0-.4362.1663-.815.5-1.1425.3325-.3238.7804-.4883 1.3203-.4883 1.155 0 1.7742.516 1.9805.8535.0687.1112.1221.2403.1621.3828.0413.1438.0763.4441.1074.9004h.5391c.0175-.725.0459-1.4355.0859-2.1368-.3238-.1612-.745-.2962-1.2637-.4062-.6362-.1325-1.1545-.1691-1.6308-.1504zm-88.0588.045c-.4818-.0088-.9934.0818-1.539.2812l-1.752 1.5c.0225-.8575.0542-1.449.0567-1.539 0-.0625-.0125-.1087-.0372-.1387-.0237-.03-.0617-.0449-.1055-.0449-.0437 0-.1276.0299-.2539.0899-.0075.0037-.0147.0087-.0235.0112-.5887.2725-1.5101.496-2.7676.666v.541h.0722c.6625-.0037 1.0437.0088 1.1387.041.0988.035.1678.0876.209.1563.04.0688.0691.2888.0879.6563.0375.5737.0586 1.1113.0586 1.6114 0 0-.0399 2.829-.0586 3.8066-.0188.32-.0629.541-.1328.666-.075.1275-.2096.2128-.4746.2266l-.9004.0075v.5429c1.7937-.0512 2.4242-.0586 2.5917-.0586 1.0838.0125 1.827.0436 2.0958.0586v-.543c-.655-.0112-.9984-.023-1.0371-.0292-.21-.0475-.299-.1304-.3477-.2441-.065-.1438-.1027-.3738-.1152-.6875-.02-1.0138-.0567-3.7871-.0567-3.7871 0-.6913.0838-1.1841.25-1.4765.1663-.2913.444-.5511.834-.7774.3888-.2275.8217-.3418 1.293-.3418 1.07 0 1.88.5657 2.0938 1.4083.075.3087.1113.9546.1113 1.9433v1.588c0 .4087-.0363 1.3852-.1113 2.9277 0 .0062-.0025.0132-.0025.0195 1.1525-.0513 1.5753-.0587 1.7128-.0587a32.977 32.977 0 011.504.0587v-.543l-.9825-.0293c-.2713-.0362-.3827-.1516-.4414-.5253-.0388-.2963-.0566-.8525-.0566-1.67v-1.666c0-1.2962-.022-2.0834-.0645-2.3672-.1513-.9512-.5757-1.555-1.4844-1.9687-.4306-.1969-.8834-.304-1.3653-.3125zm48.1288 0c-.4827-.0076-.9918.085-1.5293.2812l-1.75 1.5c.0213-.8425.0542-1.449.0567-1.539 0-.0625-.014-.1087-.039-.1387-.0238-.03-.0585-.0449-.1035-.0449-.0425 0-.1256.0279-.248.0879-.0013 0-.0038.0025-.0076.0025-.5875.2775-1.5177.5065-2.789.6777v.541h.082c.6538-.0037 1.0307.0088 1.127.041.0987.035.1696.0875.2109.1563.04.0688.0685.2888.086.6563.0375.5737.0586 1.1113.0586 1.6113 0 0-.0399 2.8292-.0586 3.8067-.0175.32-.0609.541-.1309.666-.075.1275-.2083.2128-.4746.2265l-.9004.0075v.543c1.805-.0513 2.4325-.0587 2.5938-.0587 1.1037.015 1.8492.0462 2.0917.0587v-.543c-.655-.0113-1.002-.023-1.037-.0293-.2138-.0475-.2977-.1304-.3477-.2441-.0638-.1438-.1008-.3738-.1133-.6875-.0187-1.0138-.0566-3.7871-.0566-3.7871 0-.6913.0817-1.1841.248-1.4765.1663-.2913.446-.5511.836-.7774.39-.225.8147-.3418 1.291-.3418 1.0687 0 1.8787.5657 2.0937 1.4083.0738.3087.1133.9546.1133 1.9433v1.588c0 .4087-.0395 1.3847-.1133 2.9297 0 .0037.0012.0112 0 .0176 1.1688-.0513 1.5867-.0586 1.713-.0586.6987.0125 1.2569.0423 1.5019.0586v-.543l-.9824-.0292c-.27-.0363-.379-.1492-.4414-.5254-.0375-.2963-.0567-.8524-.0567-1.6699v-1.666c0-1.2962-.0226-2.0835-.0663-2.3672-.1488-.9513-.5737-1.555-1.4824-1.9688-.4356-.1988-.8924-.3053-1.375-.3125zm8.4355 0c-.83.3937-1.8495.6574-3.0645.7949v.543c.7462 0 1.1669.0253 1.2656.0703.0988.0475.1663.1171.205.211.0626.175.0938.7315.0938 1.664v1.6542c-.0375 1.7187-.0566 2.6161-.0566 2.7011-.02.32-.064.5423-.1328.666-.075.1275-.209.2109-.4766.2246l-.8984.01v.543c1.65-.0525 2.2742-.0586 2.4805-.0586 1.0425.0125 1.9257.0424 2.3007.0586v-.543c-.6637-.0112-1.0159-.023-1.0546-.0292-.1013-.0237-.1741-.057-.2266-.0957-.1738-.1413-.2185-.3935-.2285-.836-.005-.13-.0254-1.012-.0566-2.6445V8.1722c0-.7113.019-1.734.0566-3.0703l-.207-.1504zm39.2287 0c-.8337.4-1.8513.6574-3.0663.7949v.543c.7462 0 1.1688.0253 1.2676.0703.0975.0475.1663.1171.205.211.0638.175.0938.7315.0938 1.664v1.6542c-.0387 1.7187-.0566 2.6161-.0566 2.7011-.02.32-.0653.5423-.1328.666-.0788.1275-.2084.2109-.4746.2246l-.9024.01v.543c1.6863-.0525 2.3-.0586 2.4824-.0586 1.0938.0125 1.987.0448 2.3008.0586v-.543c-.6638-.0112-1.0172-.023-1.0547-.0292-.1013-.0238-.1766-.057-.2266-.0958-.175-.1412-.2166-.3934-.2266-.836-.005-.13-.026-1.012-.0586-2.6444V8.172c0-.7113.0198-1.734.0586-3.0703l-.209-.1504zm-103.5975.0156c-.5892-.0598-1.1729.152-1.5957.5214-.1075.095-.2794.3018-.5156.623a17.156 17.156 0 01-.7774.9708c.0163-1.0938.0561-1.7961.0586-1.8886 0-.0625-.014-.1087-.039-.1387-.025-.03-.0597-.0449-.1035-.0449-.0437 0-.1308.0299-.2558.0899a1.4976 1.4976 0 01-.1114.0489c-.59.2575-1.481.4676-2.6798.6289v.541h.0063c.7037-.0063 1.1077.0087 1.209.041.1037.035.1748.0875.2148.1562.0413.0688.0676.2888.0801.6563a24.779 24.779 0 01.0548 1.6132s.0003 1.1898-.0548 3.7285c-.02.4688-.0852.7316-.2402.8516-.0537.0388-.1333.0704-.2383.0879-.0562.0137-.4363.0259-1.1425.0371v.5429c1.4162-.0537 2.218-.056 2.3417-.0586 1.4475.015 2.5054.0461 2.8379.0586v-.543c-.8313-.055-1.3413-.1117-1.5313-.1679-.1887-.0612-.2533-.1351-.3008-.3476-.0262-.1075-.0406-.3554-.0468-.7442-.0388-1.0975-.0587-1.8545-.0587-2.2695v-.9707c0-.7937.1677-1.3915.504-1.789.3337-.4.7407-.5996 1.2207-.5996.57 0 .9221.2619 1.2109.8594h.4238c.015-.6338.0699-1.3715.17-2.209l-.0548-.1309a1.9312 1.9312 0 00-.586-.1543zm91.2813 0c-.5906-.059-1.1728.1558-1.5938.5214-.1062.095-.2768.3018-.5156.623-.3525.4576-.6223.7833-.7773.9708.0225-1.275.056-1.7961.0586-1.8886 0-.0625-.0141-.1087-.0391-.1387-.0263-.03-.0598-.0449-.1035-.0449-.1288.03-.3614.1414-.6114.2364-.5825.2125-1.3917.39-2.4355.5312v.541c.7088-.0062 1.1124.0088 1.2149.041.1037.035.1748.0875.2148.1563.04.0687.0688.2887.0801.6562.0388.5738.0548 1.112.0548 1.6133 0 0 .0025 1.1897-.0548 3.7285-.0175.4687-.084.7315-.2402.8515-.0525.0388-.1333.0704-.2383.0879-.0562.0138-.4395.0259-1.1445.0371v.543c1.3638-.0512 2.165-.0561 2.3438-.0586 1.2962.01 2.329.0424 2.8378.0586v-.543c-.8312-.055-1.3425-.1117-1.5312-.168-.1875-.0612-.252-.135-.3008-.3476-.0262-.1075-.0419-.3554-.0469-.7441-.0375-1.0975-.0586-1.8545-.0586-2.2695v-.9707c0-.7938.169-1.3915.504-1.789.3362-.3975.7419-.5996 1.2206-.5996.5713 0 .9254.2619 1.213.8594h.4218c.0137-.6338.0693-1.3715.1719-2.209l-.0567-.131a1.9232 1.9232 0 00-.5879-.1542zM94.763 5.207v.5391c.3788.015.6086.0324.6973.0586.2138.0488.3608.1772.6133.7422l2.7031 6.2813c.0975.22.2667.649.5117 1.289h.9668c.9325-2.2063 1.478-3.4807 1.6368-3.8282l.9062-1.9257c.59-1.205.932-1.8788 1.0196-2.0313.1262-.2262.2553-.3735.3828-.4472.1287-.0725.3887-.1187.7812-.1387v-.539c-1.2937.045-1.891.059-2.1836.0527-.325-.01-.7988-.0265-1.4239-.0528v.5391c.655.02 1.0578.0711 1.209.1523.145.0775.1415.2628.084.5078-.1012.395-.3023.966-.6035 1.711-.4713 1.1738-.7494 1.8524-.8594 2.1074l-.9375 2.127c-.0025-.0025-.005-.0087-.0075-.0112-.4425-1.035-.8984-2.1153-.8984-2.1153l-1.1483-2.8515c-.2512-.6187-.377-1.0227-.377-1.209 0-.12.0598-.2144.1798-.2832.1187-.0687.5172-.1147 1.1972-.1347v-.5391c-1.3187.045-2.2707.0585-2.5195.0548a107.7725 107.7725 0 01-1.9297-.0548zm46.145 0v.541c.4463.0513.7346.1139.8633.1914.1288.0788.2488.227.3613.457.2838.5788.648 1.4204 1.0918 2.5254l1.4962 3.707c.2825.7025.5246 1.336.7246 1.8985a23.9274 23.9274 0 01-.8926 2.0508c-.2213.435-.411.7412-.5723.92-.3187.3562-.696.5175-1.086.5175-.13 0-.2315-.0113-.3202-.0254-.0388-.0075-.0801-.0127-.1114-.0215-.1937-.0637-.3374-.1771-.5762-.3809h-.2285l-.4805 1.4532c.415.2275.7068.3144 1.123.3144.855 0 1.5837-.3686 2.1075-1.0586.2612-.345.5772-.921.9472-1.7285l2.1602-5.086c.9562-2.1087 1.6117-3.5242 1.9667-4.248.3538-.7237.62-1.151.795-1.2773.1762-.1263.4228-.194.744-.209l.0938-.541c-.655.0362-1.9112.0887-3.625 0v.541c.6588.0637 1.0378.1285 1.1328.1973.16.1075.1764.2843.1114.5468-.0825.29-.3681 1.0493-.8594 2.2793-.4887 1.2262-.831 2.0605-1.0273 2.498l-.498 1.1094c-.46-1.0588-1.498-3.5997-1.498-3.5997-.22-.545-.4504-1.2019-.6954-1.9707-.1062-.31-.1601-.51-.1601-.6113 0-.1588.0816-.2682.2441-.3282.095-.0375.4658-.076 1.1133-.121v-.541c-1.0712.0437-2.2267.0597-2.4042.0547-.6738-.0038-1.3535-.0197-2.041-.0548zm-122.7787.3144c1.09 0 2.0249.5375 2.6074 2 .2912.73.4375 1.598.4375 2.6055 0 1.2113-.247 2.1075-.7344 2.6875-.4863.5825-1.096.875-1.8223.875-.5675 0-1.097-.1872-1.582-.5547-.4862-.3712-.8557-.9574-1.1132-1.7636-.2563-.8037-.3848-1.593-.3848-2.373 0-1.19.24-2.0677.7187-2.6327.4788-.5625 1.103-.8438 1.873-.8438zm27.3437 0c1.3413 0 2.211.9008 2.211 2.8945 0 .0813-.0012.1996-.0075.3496-.2637.0325-.8134.047-1.6485.047h-.119c-.97-.02-2.2992-.0648-2.8067-.1036.0062-1.1037.2257-1.9106.6582-2.4219.4337-.51 1.0054-.7656 1.7129-.7656zm63.3925 0c1.3425 0 2.215.9008 2.215 2.8945 0 .0813-.005.1996-.01.3496-.2638.0325-.814.047-1.6466.047-.1075 0-.5429-.0038-1.9316-.047-.4888-.0175-.8206-.039-.998-.0566.0074-1.1037.2276-1.9106.66-2.4219.4326-.51 1.0073-.7656 1.711-.7656z"/></svg>