<svg width="38" height="22" viewBox="0 0 38 22" fill="none" xmlns="http://www.w3.org/2000/svg" aria-label="Mendeley Logo"><path fill-rule="evenodd" clip-rule="evenodd" d="M12.0192 10.698C10.6017 10.698 7.0498 11.638 7.0498 14.7011C7.0498 15.99 7.84161 16.6493 7.84161 17.9599C7.84161 19.8883 6.27913 21.4516 4.35171 21.4516C2.4243 21.4516 0.861816 19.8883 0.861816 17.9599C0.861816 16.1734 2.23499 14.6662 3.93002 14.5055C4.96086 14.4078 6.19482 13.8908 6.81791 12.6061C8.05048 10.0648 5.88727 9.40653 5.88727 6.36772C5.88727 3.15377 8.4914 0.54834 11.7038 0.54834C13.5646 0.54834 15.2213 1.42261 16.2942 2.78298C16.9334 3.59122 17.8363 4.15545 19.0093 4.15545C20.1823 4.15545 21.1317 3.59122 21.7791 2.78298C22.8438 1.42261 24.5005 0.54834 26.3613 0.54834C29.5737 0.54834 32.1205 3.15394 32.1778 6.36772C32.2286 9.21052 30.1085 9.97947 31.2848 12.6061C31.7864 13.7262 33.0213 14.4067 34.1091 14.5055C35.906 14.6687 37.1567 16.2955 37.1567 17.9599C37.1567 19.8883 35.5943 21.4516 33.6669 21.4516C31.7394 21.4516 30.177 19.8883 30.177 17.9599C30.177 16.7665 31.0145 16.0182 31.0145 14.7011C31.0145 11.9185 27.9458 10.6627 25.9858 10.698C24.7727 10.7198 23.4554 11.1396 22.7535 11.7256C22.0516 12.3116 21.5207 13.2577 21.5207 14.3286C21.5207 15.9307 22.4992 16.4455 22.4992 17.9599C22.4992 19.8883 20.9367 21.4516 19.0093 21.4516C17.0819 21.4516 15.5194 19.8897 15.5194 17.9599C15.5194 16.1387 16.5355 16.1565 16.5355 14.3286C16.5355 13.2577 16.0072 12.316 15.2931 11.7256C14.6538 11.1927 13.4367 10.698 12.0192 10.698ZM19.0185 5.23962C17.0903 5.23962 15.5272 6.78133 15.5272 8.68312C15.5272 10.5849 17.0903 12.1266 19.0185 12.1266C20.9467 12.1266 22.5098 10.5849 22.5098 8.68312C22.5098 6.78133 20.9467 5.23962 19.0185 5.23962Z" fill="black"></path></svg>
